<?xml version="1.0" encoding="UTF-8"?>
<svg width="32px" height="32px" viewBox="0 0 32 32" version="1.1" xmlns="http://www.w3.org/2000/svg" xmlns:xlink="http://www.w3.org/1999/xlink">
    <!-- Generator: Sketch 43.1 (39012) - http://www.bohemiancoding.com/sketch -->
    <title>create</title>
    <desc>Created with Sketch.</desc>
    <defs></defs>
    <g id="Welcome" stroke="none" stroke-width="1" fill="none" fill-rule="evenodd">
        <g id="create">
            <path d="M22.9601551,21.9601551 L24.4601551,21.9601551 L24.4601551,-0.0398448916 L21.4601551,-0.0398448916 L21.4601551,18.9601551 L13.4601551,18.9601551 L13.4601551,21.9601551 L22.9601551,21.9601551 Z" id="Combined-Shape" fill="#FFFFFF" transform="translate(18.960155, 10.960155) rotate(-315.000000) translate(-18.960155, -10.960155) "></path>
            <path d="M30.0088879,19.7557143 C30.0828455,19.4787051 30.1488849,19.1982486 30.2067371,18.9145832 L30.2070415,18.9142788 C30.1491798,19.1978569 30.0830409,19.4784231 30.0088879,19.7557143 Z M30.0088879,19.7557143 C28.3542287,25.9432316 22.7092595,30.5 16,30.5 C7.99187113,30.5 1.5,24.0081289 1.5,16 C1.5,7.99187113 7.99187113,1.5 16,1.5 C17.8629722,1.5 19.6729676,1.85108913 21.3573877,2.52129196 L21.3567074,2.5219723 C19.6690385,1.85062603 17.8584246,1.5 16,1.5 C7.99187113,1.5 1.5,7.99187113 1.5,16 C1.5,24.0081289 7.99187113,30.5 16,30.5 C22.6416368,30.5 28.3403661,26.0051852 30.0088879,19.7557143 Z" id="Combined-Shape" stroke="#FFFFFF" stroke-width="3"></path>
        </g>
    </g>
</svg>